<?xml version="1.0" encoding="UTF-8" standalone="no"?>
<!DOCTYPE svg PUBLIC "-//W3C//DTD SVG 1.1//EN"
 "http://www.w3.org/Graphics/SVG/1.1/DTD/svg11.dtd">
<!-- Generated by graphviz version 2.38.0 (20140413.2041)
 -->
<!-- Title: G Pages: 1 -->
<svg width="148pt" height="260pt"
 viewBox="0.00 0.00 148.00 260.00" xmlns="http://www.w3.org/2000/svg" xmlns:xlink="http://www.w3.org/1999/xlink">
<g id="graph0" class="graph" transform="scale(1 1) rotate(0) translate(4 256)">
<title>G</title>
<polygon fill="white" stroke="none" points="-4,4 -4,-256 144,-256 144,4 -4,4"/>
<!-- Campaign -->
<g id="node1" class="node"><title>Campaign</title>
<polygon fill="none" stroke="black" points="59,-252 0,-252 0,-216 59,-216 59,-252"/>
<text text-anchor="middle" x="29.5" y="-232.1" font-family="Bitstream Vera Sans" font-size="8.00">Campaign</text>
</g>
<!-- Goody -->
<g id="node2" class="node"><title>Goody</title>
<polygon fill="none" stroke="black" points="56.5,-180 2.5,-180 2.5,-144 56.5,-144 56.5,-180"/>
<text text-anchor="middle" x="29.5" y="-160.1" font-family="Bitstream Vera Sans" font-size="8.00">Goody</text>
</g>
<!-- Campaign&#45;&gt;Goody -->
<g id="edge1" class="edge"><title>Campaign&#45;&gt;Goody</title>
<path fill="none" stroke="black" d="M29.5,-215.697C29.5,-204.846 29.5,-190.917 29.5,-180.104"/>
<text text-anchor="middle" x="26.5" y="-182.704" font-family="Bitstream Vera Sans" font-size="8.00">n</text>
<text text-anchor="middle" x="26.5" y="-209.297" font-family="Bitstream Vera Sans" font-size="8.00">1</text>
</g>
<!-- Order -->
<g id="node3" class="node"><title>Order</title>
<polygon fill="none" stroke="black" points="56.5,-108 2.5,-108 2.5,-72 56.5,-72 56.5,-108"/>
<text text-anchor="middle" x="29.5" y="-88.1" font-family="Bitstream Vera Sans" font-size="8.00">Order</text>
</g>
<!-- Goody&#45;&gt;Order -->
<g id="edge2" class="edge"><title>Goody&#45;&gt;Order</title>
<path fill="none" stroke="black" d="M29.5,-143.697C29.5,-132.846 29.5,-118.917 29.5,-108.104"/>
<text text-anchor="middle" x="26.5" y="-110.704" font-family="Bitstream Vera Sans" font-size="8.00">n</text>
<text text-anchor="middle" x="26.5" y="-137.297" font-family="Bitstream Vera Sans" font-size="8.00">1</text>
</g>
<!-- Supporter -->
<g id="node4" class="node"><title>Supporter</title>
<polygon fill="none" stroke="black" points="59,-36 0,-36 0,-0 59,-0 59,-36"/>
<text text-anchor="middle" x="29.5" y="-16.1" font-family="Bitstream Vera Sans" font-size="8.00">Supporter</text>
</g>
<!-- Order&#45;&gt;Supporter -->
<g id="edge3" class="edge"><title>Order&#45;&gt;Supporter</title>
<path fill="none" stroke="black" d="M29.5,-71.6966C29.5,-60.8463 29.5,-46.9167 29.5,-36.1043"/>
<text text-anchor="middle" x="26.5" y="-38.7043" font-family="Bitstream Vera Sans" font-size="8.00">1</text>
<text text-anchor="middle" x="26.5" y="-65.2966" font-family="Bitstream Vera Sans" font-size="8.00">1</text>
</g>
<!-- AdminUser -->
<g id="node5" class="node"><title>AdminUser</title>
<polygon fill="none" stroke="black" points="140,-252 77,-252 77,-216 140,-216 140,-252"/>
<text text-anchor="middle" x="108.5" y="-232.1" font-family="Bitstream Vera Sans" font-size="8.00">AdminUser</text>
</g>
</g>
</svg>
